# xmcd
#
# Track frame offsets:
#	150
#	13685
#	27166
#	39513
#	55772
#	65863
#	81583
#	111873
#	132319
#	154726
#	171619
#	189117
#	216936
#	229429
#	243047
#	267979
#	294590
#	316713
#	328881
#	340910
#
# Disc length: 4769 seconds
#
# Revision: 0
# Processed by: cddbd v1.5.2PL0 Copyright (c) Steve Scherf et al.
# Submitted via: EasyCDDAExtractor 2010.6.0.0
#
DISCID=2b129f14
DTITLE=Various Artist - Euphoria - Electronic Dance Music CD 3
DYEAR=2012
DGENRE=Dance
TTITLE0=Nadia Ali, Starkillers and Alex Kanji - Pressure (Alesso Simply Deliciou
TTITLE0=s Edit)
TTITLE1=Bingo Players - Rattle (Danny Howard Remix)
TTITLE2=Matisse and Sadko - Amulet
TTITLE3=Arty - Open Space
TTITLE4=Flux Pavillion feat. Example - Daydreamer (Jack Beats Remix)
TTITLE5=Robyn - Hang With Me (Avicci's Exclusive Club Edit)
TTITLE6=Pendulum - The Island (Steve Angello, AN21, Max Vangelli Remix)
TTITLE7=Santiago Nino - VOIP
TTITLE8=Tilt - No Other Day (Tasadi and Nhato Remix)
TTITLE9=Eric Prydz - Niton (The Reason)
TTITLE10=Qulinez - Troll
TTITLE11=Example - Say Nothing (Hardwell and Dannic Remix)
TTITLE12=Tim Berg - Bromance (Avicii's Arena Mix)
TTITLE13=David Guetta - GRRRR
TTITLE14=Sebastian Ingrosso and Alesso - Calling (Original Instrumental Radio Ed
TTITLE14=it)
TTITLE15=Nero - Promises (Calvin Harris Remix)
TTITLE16=Labrinth feat. Tinie Tempah - Earthquake (Benny Benassi Remix - Dirty
TTITLE16=Version)
TTITLE17=Fedde Le Grand and Nicky Romero - Sparks
TTITLE18=Kaskade and Skrillex - Lick It
TTITLE19=Axwell, Ingrosso, Angello and Laidback Luke feat. Deborah Cox - Leave T
TTITLE19=he World Behind
EXTD=
EXTT0=
EXTT1=
EXTT2=
EXTT3=
EXTT4=
EXTT5=
EXTT6=
EXTT7=
EXTT8=
EXTT9=
EXTT10=
EXTT11=
EXTT12=
EXTT13=
EXTT14=
EXTT15=
EXTT16=
EXTT17=
EXTT18=
EXTT19=
PLAYORDER=
